<?xml version="1.0" encoding="utf-8"?>
<!-- Generator: Adobe Illustrator 16.0.0, SVG Export Plug-In . SVG Version: 6.00 Build 0)  -->
<!DOCTYPE svg PUBLIC "-//W3C//DTD SVG 1.1//EN" "http://www.w3.org/Graphics/SVG/1.1/DTD/svg11.dtd">
<svg version="1.1" id="Layer_1" xmlns="http://www.w3.org/2000/svg" xmlns:xlink="http://www.w3.org/1999/xlink" x="0px" y="0px"
	 width="340.157px" height="340.157px" viewBox="0 0 340.157 340.157" enable-background="new 0 0 340.157 340.157"
	 xml:space="preserve">
<title>search icon</title>
<g>
	<title>Layer 1</title>
	<path id="path12423" fill="#A5A5A5" d="M99.072,22.89c-53.221,30.209-72.17,98.517-41.96,151.737
		c25.596,45.091,78.614,65.509,126.571,52.301l53.859,91.86c7.418,12.625,23.499,16.669,36.005,9.056
		c12.508-7.614,16.716-23.861,9.297-36.485l-53.104-90.231c36.805-34.296,46.852-90.859,20.996-136.409
		C220.527,11.499,152.292-7.32,99.072,22.89L99.072,22.89z M121.23,61.926c32.103-18.223,72.248-7.151,90.471,24.952
		c18.222,32.102,7.15,72.248-24.952,90.47c-32.103,18.223-72.248,7.151-90.471-24.952C78.056,120.294,89.128,80.148,121.23,61.926z"
		/>
</g>
</svg>
