<?xml version="1.0" encoding="utf-8"?>
<!-- Generator: Adobe Illustrator 20.1.0, SVG Export Plug-In . SVG Version: 6.00 Build 0)  -->
<svg version="1.1" id="Capa_1" xmlns="http://www.w3.org/2000/svg" xmlns:xlink="http://www.w3.org/1999/xlink" x="0px" y="0px"
	 viewBox="0 0 67 67" style="enable-background:new 0 0 67 67;" xml:space="preserve">
<style type="text/css">
	.st0{fill:#FFFFFF;}
</style>
<g>
	<g>
		<path class="st0" d="M4.2,35h39.9L33.9,45.5c-0.8,0.8-0.8,2.1,0,2.9c0.4,0.4,0.9,0.6,1.4,0.6c0.5,0,1-0.2,1.4-0.6l12.8-12.8
			c0.4-0.4,0.6-0.9,0.6-1.4s-0.2-1-0.6-1.4l-0.6-0.6c-0.1-0.2-0.3-0.4-0.5-0.5L36.7,20c-0.8-0.8-2-0.8-2.8,0c-0.8,0.8-0.8,1.9,0,2.6
			l8.5,8.3H4.2c-1.1,0-2,0.9-2,2S3.1,35,4.2,35z"/>
		<path class="st0" d="M64.8,59.3V9.5C64.8,4.7,60.8,0,56,0H30c-4.7,0-9.3,4.6-9.3,9.5v11.8c0,1.1,0.9,2,2,2s2-0.9,2-2V9.5
			C24.8,6.8,27.5,4,30,4h26c2.6,0,4.7,2.9,4.7,5.5v49.7c0,2.7-2.2,3.7-4.7,3.7H30c-2.4,0-5.3-0.9-5.3-3.7V47.4c0-1.1-0.9-2-2-2
			s-2,0.9-2,2v11.9c0,4.7,4.2,7.7,9.3,7.7h26C61.2,67,64.8,63.8,64.8,59.3z"/>
	</g>
</g>
</svg>
